<mxfile host="app.diagrams.net" modified="2024-10-24T19:19:45.367Z" agent="Mozilla/5.0 (Macintosh; Intel Mac OS X 10_15_7) AppleWebKit/537.36 (KHTML, like Gecko) Chrome/129.0.0.0 Safari/537.36" etag="4d-GSKFgAyVkuQie49k0" version="23.1.6" type="github">
  <diagram name="ページ1" id="fggOw00aKEGHQSjqH7mn">
    <mxGraphModel dx="929" dy="550" grid="1" gridSize="10" guides="1" tooltips="1" connect="1" arrows="1" fold="1" page="1" pageScale="1" pageWidth="827" pageHeight="1169" math="0" shadow="0">
      <root>
        <mxCell id="0" />
        <mxCell id="1" parent="0" />
        <mxCell id="pP3HvTK47zw7e1M1eDcl-1" value="Node A" style="ellipse;whiteSpace=wrap;html=1;" vertex="1" parent="1">
          <mxGeometry y="100" width="70" height="70" as="geometry" />
        </mxCell>
        <mxCell id="pP3HvTK47zw7e1M1eDcl-3" value="Node B" style="ellipse;whiteSpace=wrap;html=1;" vertex="1" parent="1">
          <mxGeometry x="170" y="40" width="70" height="70" as="geometry" />
        </mxCell>
        <mxCell id="pP3HvTK47zw7e1M1eDcl-4" value="Node C" style="ellipse;whiteSpace=wrap;html=1;" vertex="1" parent="1">
          <mxGeometry x="190" y="190" width="70" height="70" as="geometry" />
        </mxCell>
        <mxCell id="pP3HvTK47zw7e1M1eDcl-5" value="Node D" style="ellipse;whiteSpace=wrap;html=1;" vertex="1" parent="1">
          <mxGeometry x="390" y="20" width="70" height="70" as="geometry" />
        </mxCell>
        <mxCell id="pP3HvTK47zw7e1M1eDcl-6" value="Node E" style="ellipse;whiteSpace=wrap;html=1;" vertex="1" parent="1">
          <mxGeometry x="390" y="190" width="70" height="70" as="geometry" />
        </mxCell>
        <mxCell id="pP3HvTK47zw7e1M1eDcl-7" value="Node F" style="ellipse;whiteSpace=wrap;html=1;" vertex="1" parent="1">
          <mxGeometry x="600" y="90" width="70" height="70" as="geometry" />
        </mxCell>
        <mxCell id="pP3HvTK47zw7e1M1eDcl-8" value="" style="endArrow=classic;html=1;rounded=0;exitX=1;exitY=0;exitDx=0;exitDy=0;entryX=0;entryY=0.5;entryDx=0;entryDy=0;" edge="1" parent="1" source="pP3HvTK47zw7e1M1eDcl-1" target="pP3HvTK47zw7e1M1eDcl-3">
          <mxGeometry width="50" height="50" relative="1" as="geometry">
            <mxPoint x="390" y="310" as="sourcePoint" />
            <mxPoint x="171" y="87" as="targetPoint" />
          </mxGeometry>
        </mxCell>
        <mxCell id="pP3HvTK47zw7e1M1eDcl-9" value="" style="endArrow=classic;html=1;rounded=0;entryX=0;entryY=0.5;entryDx=0;entryDy=0;exitX=1;exitY=1;exitDx=0;exitDy=0;" edge="1" parent="1" source="pP3HvTK47zw7e1M1eDcl-1" target="pP3HvTK47zw7e1M1eDcl-4">
          <mxGeometry width="50" height="50" relative="1" as="geometry">
            <mxPoint x="80" y="150" as="sourcePoint" />
            <mxPoint x="440" y="260" as="targetPoint" />
          </mxGeometry>
        </mxCell>
        <mxCell id="pP3HvTK47zw7e1M1eDcl-10" value="" style="endArrow=classic;html=1;rounded=0;entryX=-0.043;entryY=0.6;entryDx=0;entryDy=0;entryPerimeter=0;exitX=1;exitY=0.5;exitDx=0;exitDy=0;" edge="1" parent="1" source="pP3HvTK47zw7e1M1eDcl-3" target="pP3HvTK47zw7e1M1eDcl-5">
          <mxGeometry width="50" height="50" relative="1" as="geometry">
            <mxPoint x="270" y="110" as="sourcePoint" />
            <mxPoint x="320" y="60" as="targetPoint" />
          </mxGeometry>
        </mxCell>
        <mxCell id="pP3HvTK47zw7e1M1eDcl-11" value="" style="endArrow=classic;html=1;rounded=0;exitX=1;exitY=0.5;exitDx=0;exitDy=0;entryX=0;entryY=1;entryDx=0;entryDy=0;" edge="1" parent="1" source="pP3HvTK47zw7e1M1eDcl-6" target="pP3HvTK47zw7e1M1eDcl-7">
          <mxGeometry width="50" height="50" relative="1" as="geometry">
            <mxPoint x="510" y="290" as="sourcePoint" />
            <mxPoint x="560" y="240" as="targetPoint" />
          </mxGeometry>
        </mxCell>
        <mxCell id="pP3HvTK47zw7e1M1eDcl-12" value="" style="endArrow=classic;html=1;rounded=0;exitX=1.029;exitY=0.614;exitDx=0;exitDy=0;entryX=0;entryY=0;entryDx=0;entryDy=0;exitPerimeter=0;" edge="1" parent="1" source="pP3HvTK47zw7e1M1eDcl-5" target="pP3HvTK47zw7e1M1eDcl-7">
          <mxGeometry width="50" height="50" relative="1" as="geometry">
            <mxPoint x="459.99873734152925" y="70.00126265847075" as="sourcePoint" />
            <mxPoint x="461.25" y="139.75" as="targetPoint" />
          </mxGeometry>
        </mxCell>
        <mxCell id="pP3HvTK47zw7e1M1eDcl-13" value="" style="endArrow=classic;html=1;rounded=0;exitX=1;exitY=0.5;exitDx=0;exitDy=0;entryX=0;entryY=0.5;entryDx=0;entryDy=0;" edge="1" parent="1" source="pP3HvTK47zw7e1M1eDcl-4" target="pP3HvTK47zw7e1M1eDcl-6">
          <mxGeometry width="50" height="50" relative="1" as="geometry">
            <mxPoint x="390" y="310" as="sourcePoint" />
            <mxPoint x="330" y="120" as="targetPoint" />
          </mxGeometry>
        </mxCell>
        <mxCell id="pP3HvTK47zw7e1M1eDcl-14" value="" style="endArrow=classic;html=1;rounded=0;exitX=1;exitY=0.5;exitDx=0;exitDy=0;" edge="1" parent="1" source="pP3HvTK47zw7e1M1eDcl-3" target="pP3HvTK47zw7e1M1eDcl-6">
          <mxGeometry width="50" height="50" relative="1" as="geometry">
            <mxPoint x="390" y="310" as="sourcePoint" />
            <mxPoint x="440" y="260" as="targetPoint" />
          </mxGeometry>
        </mxCell>
        <mxCell id="pP3HvTK47zw7e1M1eDcl-15" value="Agent A" style="whiteSpace=wrap;html=1;aspect=fixed;" vertex="1" parent="1">
          <mxGeometry x="100" y="420" width="80" height="80" as="geometry" />
        </mxCell>
        <mxCell id="pP3HvTK47zw7e1M1eDcl-17" value="Agent C" style="whiteSpace=wrap;html=1;aspect=fixed;" vertex="1" parent="1">
          <mxGeometry x="500" y="420" width="80" height="80" as="geometry" />
        </mxCell>
        <mxCell id="pP3HvTK47zw7e1M1eDcl-18" value="Agent B" style="whiteSpace=wrap;html=1;aspect=fixed;" vertex="1" parent="1">
          <mxGeometry x="270" y="420" width="80" height="80" as="geometry" />
        </mxCell>
        <mxCell id="pP3HvTK47zw7e1M1eDcl-19" value="" style="endArrow=none;html=1;rounded=0;exitX=0.5;exitY=0;exitDx=0;exitDy=0;entryX=0;entryY=1;entryDx=0;entryDy=0;fillColor=#fff2cc;strokeColor=#d6b656;" edge="1" parent="1" source="pP3HvTK47zw7e1M1eDcl-15" target="pP3HvTK47zw7e1M1eDcl-3">
          <mxGeometry width="50" height="50" relative="1" as="geometry">
            <mxPoint x="390" y="360" as="sourcePoint" />
            <mxPoint x="440" y="310" as="targetPoint" />
          </mxGeometry>
        </mxCell>
        <mxCell id="pP3HvTK47zw7e1M1eDcl-20" value="" style="endArrow=none;html=1;rounded=0;exitX=0.5;exitY=0;exitDx=0;exitDy=0;entryX=0;entryY=1;entryDx=0;entryDy=0;fillColor=#fff2cc;strokeColor=#d6b656;" edge="1" parent="1" source="pP3HvTK47zw7e1M1eDcl-18" target="pP3HvTK47zw7e1M1eDcl-5">
          <mxGeometry width="50" height="50" relative="1" as="geometry">
            <mxPoint x="390" y="300" as="sourcePoint" />
            <mxPoint x="440" y="250" as="targetPoint" />
          </mxGeometry>
        </mxCell>
        <mxCell id="pP3HvTK47zw7e1M1eDcl-21" value="" style="endArrow=none;html=1;rounded=0;entryX=0;entryY=1;entryDx=0;entryDy=0;exitX=0.5;exitY=0;exitDx=0;exitDy=0;fillColor=#fff2cc;strokeColor=#d6b656;" edge="1" parent="1" source="pP3HvTK47zw7e1M1eDcl-15" target="pP3HvTK47zw7e1M1eDcl-6">
          <mxGeometry width="50" height="50" relative="1" as="geometry">
            <mxPoint x="140" y="390" as="sourcePoint" />
            <mxPoint x="440" y="250" as="targetPoint" />
          </mxGeometry>
        </mxCell>
        <mxCell id="pP3HvTK47zw7e1M1eDcl-23" value="" style="endArrow=none;html=1;rounded=0;fillColor=#fff2cc;strokeColor=#d6b656;" edge="1" parent="1" target="pP3HvTK47zw7e1M1eDcl-4">
          <mxGeometry width="50" height="50" relative="1" as="geometry">
            <mxPoint x="310" y="420" as="sourcePoint" />
            <mxPoint x="440" y="250" as="targetPoint" />
          </mxGeometry>
        </mxCell>
        <mxCell id="pP3HvTK47zw7e1M1eDcl-24" value="" style="endArrow=none;html=1;rounded=0;exitX=0.5;exitY=0;exitDx=0;exitDy=0;entryX=0.343;entryY=1;entryDx=0;entryDy=0;entryPerimeter=0;fillColor=#fff2cc;strokeColor=#d6b656;" edge="1" parent="1" source="pP3HvTK47zw7e1M1eDcl-17" target="pP3HvTK47zw7e1M1eDcl-7">
          <mxGeometry width="50" height="50" relative="1" as="geometry">
            <mxPoint x="390" y="300" as="sourcePoint" />
            <mxPoint x="440" y="250" as="targetPoint" />
          </mxGeometry>
        </mxCell>
      </root>
    </mxGraphModel>
  </diagram>
</mxfile>
